<svg width="24" height="24" viewBox="0 0 24 24" fill="none" xmlns="http://www.w3.org/2000/svg">
<path d="M19.6746 0C21.748 0 23.4284 1.69267 23.4263 3.78369V16.0345C23.4263 16.0345 22.6573 15.9706 19.2876 14.8348C18.3518 14.5185 17.0927 14.0347 15.6922 13.5236C16.5332 12.0476 17.2057 10.3671 17.6483 8.5415H13.0301V6.86499H18.6865V5.92804H13.0301V3.13128H10.7217C10.3229 3.13128 10.3168 3.52196 10.3166 3.53375V5.92675H4.59624V6.86243H10.3166V8.54023H5.59217V9.4759H14.7541C14.4199 10.6399 13.9684 11.7354 13.4351 12.7289C10.4632 11.7398 7.2891 10.9383 5.29738 11.4318C4.02294 11.7483 3.20224 12.3128 2.71989 12.9058C0.506887 15.6211 2.09396 19.7451 6.76751 19.7451C9.53124 19.745 12.1931 18.1922 14.2555 15.6321C17.3337 17.1235 23.4263 19.6862 23.4263 19.6862V19.8413C23.4262 21.9302 21.748 23.625 19.6746 23.625H3.75296C1.6796 23.6249 0.00013125 21.93 0 19.8413V3.78369C0.0002625 1.69494 1.6796 9.11966e-05 3.75296 0H19.6746ZM5.69349 12.8353C7.85767 12.6207 9.86343 13.4517 12.2291 14.6156C10.5672 16.802 8.4483 18.1687 6.33045 18.1687C2.68629 18.1683 1.60952 15.2733 3.41066 13.689C4.01257 13.1537 5.1093 12.8929 5.69349 12.8353Z" fill="#1677FF"/>
</svg>
