<svg width="150" height="44" viewBox="0 0 150 44" fill="none" xmlns="http://www.w3.org/2000/svg">
<rect width="150" height="44" rx="8" fill="white"/>
<circle cx="24" cy="22" r="7.5" stroke="black" stroke-opacity="0.2"/>
<path d="M24 14C28.4183 14 32 17.5817 32 22C32 26.4183 28.4183 30 24 30C19.5817 30 16 26.4183 16 22C16 17.5817 19.5817 14 24 14Z" fill="#06B6D4"/>
<path d="M23.0004 23.5859L27.5964 18.9894L28.3039 19.6964L23.0004 24.9999L19.8184 21.8179L20.5254 21.1109L23.0004 23.5859Z" fill="white"/>
<g clip-path="url(#clip0_36_3379)">
<path fill-rule="evenodd" clip-rule="evenodd" d="M104.644 23.2813H96.5824C96.7667 25.2109 98.1807 25.8289 99.7856 25.8289C101.421 25.8289 102.739 25.4633 103.831 24.8783V28.1962C102.712 28.9077 101.235 29.303 99.2664 29.303C95.2554 29.303 92.4446 26.7908 92.4446 21.8247C92.4446 17.6303 94.8283 14.2996 98.7463 14.2996C102.658 14.2996 104.7 17.58 104.7 21.7978C104.7 22.196 104.663 23.0588 104.644 23.2813ZM98.7203 17.6572C97.6909 17.6572 96.5464 18.3854 96.5464 20.2411H100.804C100.804 18.3875 99.7316 17.6572 98.7203 17.6572ZM85.9547 29.303C84.5136 29.303 83.6327 28.6943 83.0414 28.2613L83.0326 32.8884L78.9145 33.7639L78.9131 14.5734H82.6674L82.7538 15.5912C83.3573 15.0621 84.3652 14.2996 85.9794 14.2996C88.8719 14.2996 91.5956 16.9048 91.5956 21.6993C91.5956 26.932 88.9008 29.303 85.9547 29.303ZM84.9957 17.9473C84.0504 17.9473 83.4581 18.2929 83.0288 18.7631L83.0533 24.8828C83.453 25.3158 84.0296 25.6641 84.9957 25.6641C86.5188 25.6641 87.5394 24.0066 87.5394 21.7896C87.5394 19.6352 86.5024 17.9473 84.9957 17.9473ZM73.2355 14.5734H77.3696V29.0088H73.2355V14.5734ZM73.2355 9.87867L77.3696 9V12.3582L73.2355 13.2369V9.87867ZM68.9198 19.2223V29.0084H64.8042V14.573H68.4909L68.6226 15.7905C69.6261 14.0183 71.6948 14.3773 72.2435 14.5745V18.3598C71.7193 18.1907 69.9541 17.932 68.9198 19.2223ZM60.3673 23.9444C60.3673 26.3719 62.9661 25.6163 63.4936 25.4053V28.7575C62.9444 29.0588 61.9499 29.3033 60.6035 29.3033C58.1594 29.3033 56.3262 27.5034 56.3262 25.0654L56.3435 11.8888L60.3641 11.0342L60.3673 14.5737H63.4951V18.0857H60.3673V23.9444ZM55.4604 24.647C55.4604 27.6115 53.1499 29.3032 49.7258 29.3032C48.3062 29.3032 46.8029 29.0271 45.2718 28.3685V24.4366C46.6539 25.1882 48.3655 25.7516 49.7296 25.7516C50.6482 25.7516 51.2606 25.5057 51.2606 24.7447C51.2606 22.7786 45 23.5192 45 18.96C45 16.0446 47.2762 14.2998 50.6165 14.2998C51.9806 14.2998 53.3446 14.5091 54.7086 15.0533V18.9317C53.456 18.2555 51.8653 17.8719 50.6128 17.8719C49.7498 17.8719 49.1652 18.1216 49.1652 18.7643C49.1653 20.6176 55.4604 19.7367 55.4604 24.647Z" fill="#635BFF"/>
</g>
<defs>
<clipPath id="clip0_36_3379">
<rect width="60" height="25" fill="white" transform="translate(45 9)"/>
</clipPath>
</defs>
</svg>
